<svg width="440" height="440" viewBox="0 0 440 440" fill="none" xmlns="http://www.w3.org/2000/svg">
<g clip-path="url(#clip0_2006_77)">
<path d="M-78 266.777L-12.4765 188.689C-6.04608 181.026 5.74467 181.026 12.1751 188.689L65.3728 252.088C71.8032 259.751 83.594 259.751 90.0244 252.088L143.222 188.689C149.653 181.026 161.443 181.026 167.874 188.689L221.071 252.088C227.502 259.751 239.293 259.751 245.723 252.088L298.921 188.689C305.351 181.026 317.142 181.026 323.572 188.689L376.77 252.088C383.2 259.751 394.991 259.751 401.422 252.088L454.619 188.689C461.05 181.026 472.84 181.026 479.271 188.689L532.469 252.088C538.899 259.751 550.69 259.751 557.12 252.088L610.318 188.689C616.748 181.026 628.539 181.026 634.969 188.689L700.493 266.777" stroke="#E50004" stroke-width="41.8345" stroke-linecap="round"/>
</g>
<defs>
<clipPath id="clip0_2006_77">
<rect width="440" height="440" fill="white"/>
</clipPath>
</defs>
</svg>
