<svg width="440" height="440" viewBox="0 0 440 440" fill="none" xmlns="http://www.w3.org/2000/svg">
<path d="M20 196L44.6791 225.411C52.6721 234.937 67.3279 234.937 75.3209 225.411L84.6791 214.258C92.6721 204.733 107.328 204.733 115.321 214.259L124.679 225.411C132.672 234.937 147.328 234.937 155.321 225.411L164.679 214.258C172.672 204.733 187.328 204.733 195.321 214.259L204.679 225.411C212.672 234.937 227.328 234.937 235.321 225.411L244.679 214.258C252.672 204.733 267.328 204.733 275.321 214.259L284.679 225.411C292.672 234.937 307.328 234.937 315.321 225.411L324.679 214.258C332.672 204.733 347.328 204.733 355.321 214.259L364.679 225.411C372.672 234.937 387.328 234.937 395.321 225.411L420 196" stroke="#E50004" stroke-width="26" stroke-linecap="round"/>
</svg>
